# xmcd
#
# Track frame offsets:
#	150
#	15676
#	37388
#	54303
#	69075
#	84385
#	101618
#	116572
#	130000
#	146463
#	163846
#	183063
#	199659
#	215403
#	232353
#	246076
#	254544
#	270609
#	289896
#
# Disc length: 4083 seconds
#
# Revision: 0
# Processed by: cddbd v1.5.2PL0 Copyright (c) Steve Scherf et al.
# Submitted via: EasyCDDAExtractor 11.5.0.1
#
DISCID=170ff113
DTITLE=Various Artist - NCT 048
DYEAR=2003
DGENRE=Country
TTITLE0=Toby Keith ft. Willie Nelson - Beer For My Horses
TTITLE1=Shania Twain - Forever And For Always
TTITLE2=Brad Paisley - Celebrity
TTITLE3=Aaron Lines - Love Changes Everything
TTITLE4=Joe Nichols - She Only Smokes When She Drinks
TTITLE5=LeAnn Rimes - Suddenly
TTITLE6=George Strait - Tell Me Something Bad About Tulsa
TTITLE7=Tracy Byrd - The Truth About Men
TTITLE8=Vince Gill - Someday
TTITLE9=Dierks Bentley - What Was I Thinkin'
TTITLE10=Trace Adkins - Then They Do
TTITLE11=Jennifer Hanson - This Far Gone
TTITLE12=Blake Shelton - Heavy Liftin'
TTITLE13=Dusty Drake - One Last Time
TTITLE14=McHayes - It Doesn't Mean I Don't Love You
TTITLE15=Rodney Carrington - Don't Look Now
TTITLE16=Eric Heatherly - When A Heart Begins To Drift
TTITLE17=The Warren Brothers - Hey Mr. President
TTITLE18=Johnny Cash - Hurt
EXTD=
EXTT0=
EXTT1=
EXTT2=
EXTT3=
EXTT4=
EXTT5=
EXTT6=
EXTT7=
EXTT8=
EXTT9=
EXTT10=
EXTT11=
EXTT12=
EXTT13=
EXTT14=
EXTT15=
EXTT16=
EXTT17=
EXTT18=
PLAYORDER=
